<svg width="800" height="160" viewBox="0 0 800 160" fill="none" xmlns="http://www.w3.org/2000/svg">
  <line x1="0" y1="0"   x2="800" y2="0"   stroke="rgba(255,255,255,0.07)" stroke-width="0.5"/>
  <line x1="0" y1="160" x2="800" y2="160" stroke="rgba(255,255,255,0.07)" stroke-width="0.5"/>
  <rect x="0" y="0" width="3" height="160" fill="#4af0a0" opacity="0.45"/>

  <text x="18" y="22" font-family="'Roboto Mono',monospace" font-size="9" fill="rgba(74,240,160,0.5)" letter-spacing="3">// RESEARCH</text>

  <!-- Card 1 -->
  <rect x="18" y="34" width="370" height="112" rx="3" fill="none" stroke="rgba(255,255,255,0.08)" stroke-width="0.7"/>
  <rect x="18" y="34" width="3"   height="112" rx="1" fill="#4af0a0" opacity="0.6"/>
  <text x="32" y="56" font-family="'Roboto Mono',monospace" font-size="9" fill="rgba(74,240,160,0.65)" letter-spacing="2">THESIS  .  COMPLETED</text>
  <text x="32" y="76" font-family="'Roboto Mono',monospace" font-size="12" font-weight="700" fill="#e8e8ea">Climate + Disaster Prediction</text>
  <text x="32" y="95" font-family="'Roboto Mono',monospace" font-size="9.5" fill="rgba(232,232,234,0.35)">ML models on time series data</text>
  <text x="32" y="111" font-family="'Roboto Mono',monospace" font-size="9.5" fill="rgba(232,232,234,0.35)">Flood, Cyclone, Drought, Wildfire</text>
  <rect x="32" y="122" width="60" height="16" rx="2" fill="rgba(74,240,160,0.1)"/>
  <text x="62" y="134" font-family="'Roboto Mono',monospace" font-size="8" fill="#4af0a0" text-anchor="middle">data-sparse</text>

  <!-- Card 2 -->
  <rect x="412" y="34" width="370" height="112" rx="3" fill="none" stroke="rgba(255,255,255,0.08)" stroke-width="0.7"/>
  <rect x="412" y="34" width="3"   height="112" rx="1" fill="#4af0a0" opacity="0.6"/>
  <text x="426" y="56" font-family="'Roboto Mono',monospace" font-size="9" fill="rgba(74,240,160,0.65)" letter-spacing="2">PUBLISHED  .  NLP</text>
  <text x="426" y="76" font-family="'Roboto Mono',monospace" font-size="12" font-weight="700" fill="#e8e8ea">Gemma-3 on Bangla Instructions</text>
  <text x="426" y="95" font-family="'Roboto Mono',monospace" font-size="9.5" fill="rgba(232,232,234,0.35)">Dataset quality over model size</text>
  <text x="426" y="111" font-family="'Roboto Mono',monospace" font-size="9.5" fill="rgba(232,232,234,0.35)">Low-resource NLP behavior</text>
  <rect x="426" y="122" width="72" height="16" rx="2" fill="rgba(74,240,160,0.1)"/>
  <text x="462" y="134" font-family="'Roboto Mono',monospace" font-size="8" fill="#4af0a0" text-anchor="middle">low-resource</text>
</svg>
